<svg width="24" height="40" viewBox="0 0 24 40" fill="none" xmlns="http://www.w3.org/2000/svg">
<path d="M14.2639 39.731H7.7745C6.69057 39.731 5.80883 38.8824 5.80883 37.8392V23.7521H2.0228C0.938867 23.7521 0.0571289 22.9032 0.0571289 21.8603V15.824C0.0571289 14.7808 0.938867 13.9322 2.0228 13.9322H5.80883V10.9094C5.80883 7.91224 6.78672 5.36227 8.63645 3.53563C10.4945 1.70066 13.0912 0.730957 16.1458 0.730957L21.0949 0.738693C22.1769 0.740479 23.0571 1.58908 23.0571 2.63049V8.23508C23.0571 9.27827 22.1757 10.1269 21.0921 10.1269L17.7599 10.1281C16.7437 10.1281 16.4849 10.3242 16.4296 10.3843C16.3384 10.4839 16.2298 10.7657 16.2298 11.5438V13.9319H20.8417C21.1888 13.9319 21.5252 14.0143 21.8143 14.1696C22.4379 14.505 22.8256 15.139 22.8256 15.8243L22.8231 21.8606C22.8231 22.9032 21.9414 23.7518 20.8574 23.7518H16.2298V37.8392C16.2298 38.8824 15.3478 39.731 14.2639 39.731ZM8.18445 37.4446H13.8539V22.7286C13.8539 22.032 14.4429 21.4655 15.1663 21.4655H20.4475L20.4496 16.2185H15.166C14.4426 16.2185 13.8539 15.652 13.8539 14.9555V11.5438C13.8539 10.6506 13.9482 9.63474 14.6488 8.87123C15.4953 7.94824 16.8293 7.84172 17.7593 7.84172L20.6815 7.84053V3.02444L16.1439 3.0173C11.235 3.0173 8.18445 6.04156 8.18445 10.9094V14.9555C8.18445 15.6517 7.5958 16.2185 6.87236 16.2185H2.43275V21.4655H6.87236C7.5958 21.4655 8.18445 22.032 8.18445 22.7286V37.4446ZM21.0902 3.02504H21.0905H21.0902Z" fill="#C4C4C4"/>
</svg>
