<svg width="40" height="40" viewBox="0 0 40 40" fill="none" xmlns="http://www.w3.org/2000/svg">
<path d="M28.8285 0.416504H10.7C4.79993 0.416504 0 5.21643 0 11.1165V29.2453C0 35.1451 4.79993 39.945 10.7 39.945H28.8288C34.7286 39.945 39.5285 35.1451 39.5285 29.2453V11.1165C39.5285 5.21643 34.7286 0.416504 28.8285 0.416504V0.416504ZM37.2112 29.2453C37.2112 33.8673 33.4508 37.6277 28.8285 37.6277H10.7C6.07772 37.6277 2.31733 33.8673 2.31733 29.2453V11.1165C2.31733 6.49422 6.07772 2.73383 10.7 2.73383H28.8288C33.4508 2.73383 37.2112 6.49422 37.2112 11.1165V29.2453Z" fill="#001E64"/>
<path d="M19.7623 9.37256C13.8025 9.37256 8.95398 14.221 8.95398 20.1808C8.95398 26.1406 13.8025 30.9891 19.7623 30.9891C25.7221 30.9891 30.5705 26.1406 30.5705 20.1808C30.5705 14.221 25.7221 9.37256 19.7623 9.37256ZM19.7623 28.6718C15.0806 28.6718 11.2713 24.8628 11.2713 20.1808C11.2713 15.4991 15.0806 11.6899 19.7623 11.6899C24.4443 11.6899 28.2532 15.4991 28.2532 20.1808C28.2532 24.8628 24.4443 28.6718 19.7623 28.6718Z" fill="#001E64"/>
<path d="M30.8304 5.53394C29.0692 5.53394 27.6367 6.96674 27.6367 8.72765C27.6367 10.4889 29.0692 11.9217 30.8304 11.9217C32.5917 11.9217 34.0245 10.4889 34.0245 8.72765C34.0245 6.96643 32.5917 5.53394 30.8304 5.53394ZM30.8304 9.60404C30.3473 9.60404 29.954 9.21078 29.954 8.72765C29.954 8.24422 30.3473 7.85127 30.8304 7.85127C31.3139 7.85127 31.7071 8.24422 31.7071 8.72765C31.7071 9.21078 31.3139 9.60404 30.8304 9.60404Z" fill="#001E64"/>
</svg>
