<svg width="41" height="32" viewBox="0 0 41 32" fill="none" xmlns="http://www.w3.org/2000/svg">
<path d="M40.1984 1.26927C39.8065 0.785114 39.1568 0.605568 38.5791 0.821023L1.88729 14.2711C1.15426 14.5414 0.639734 15.1967 0.544214 15.9814C0.44961 16.7625 0.788965 17.5203 1.42556 17.9564L6.6703 21.5882C7.17842 21.9402 7.8318 21.9779 8.37593 21.6866L19.7529 15.601L10.886 22.3169C10.4697 22.6324 10.221 23.1354 10.221 23.6623V29.8832C10.221 30.5249 10.568 31.1128 11.1265 31.418C11.6859 31.7232 12.3615 31.6929 12.8928 31.3375L16.8775 28.6564L20.7959 31.3666C21.1393 31.6053 21.5482 31.731 21.9608 31.731C22.1003 31.731 22.2403 31.7164 22.3783 31.6873C22.9285 31.5709 23.4153 31.2261 23.714 30.7413L40.3147 2.97433C40.6378 2.43971 40.5914 1.75559 40.1984 1.26927ZM21.8732 29.2328L17.8153 26.426C17.533 26.2304 17.2077 26.1326 16.8827 26.1326C16.5647 26.1326 16.2464 26.2264 15.9678 26.4139L12.566 28.7028V24.0133L28.223 12.1543C28.9222 11.6247 29.0982 10.6607 28.6322 9.9122C28.1659 9.16368 27.2324 8.91077 26.4606 9.32372L7.64961 19.386L3.21358 16.3142L37.0017 3.9287L21.8732 29.2328Z" fill="#C4C4C4"/>
</svg>
