<svg width="41" height="41" viewBox="0 0 41 41" fill="none" xmlns="http://www.w3.org/2000/svg">
<path d="M34.4426 6.42261C30.8218 2.80185 26.0089 0.808105 20.8881 0.808105C20.8878 0.808105 20.8866 0.808105 20.8863 0.808105C18.3537 0.808407 15.8855 1.29878 13.551 2.26594C11.2162 3.2331 9.12442 4.63153 7.33334 6.42261C3.71288 10.0431 1.71914 14.8569 1.71914 19.9771C1.71914 23.0306 2.4559 26.0651 3.85191 28.7687L0.629839 37.9735C0.402749 38.6228 0.563491 39.3285 1.05024 39.815C1.39072 40.1558 1.83887 40.3367 2.29968 40.3367C2.49722 40.3367 2.69686 40.3035 2.89168 40.2354L12.0965 37.0136C14.8001 38.4096 17.8346 39.1464 20.8881 39.1464C26.0083 39.1464 30.8218 37.1523 34.4426 33.5319C38.0631 29.9114 40.0571 25.0976 40.0571 19.9774C40.0571 14.8569 38.0634 10.0431 34.4426 6.42261ZM32.8032 31.8925C29.6207 35.0754 25.3889 36.8278 20.8881 36.8278C18.1347 36.8278 15.3994 36.1469 12.9777 34.8579C12.5386 34.6245 12.0196 34.5844 11.5536 34.7475L3.19085 37.6744L6.11798 29.3116C6.28113 28.845 6.24072 28.326 6.0073 27.8872C4.71865 25.4661 4.03738 22.7308 4.03738 19.9771C4.03738 15.4763 5.79016 11.2446 8.97273 8.06199C12.155 4.87973 16.3861 3.12695 20.8866 3.12635H20.8881C25.3892 3.12635 29.6207 4.87912 32.8032 8.06199C35.9861 11.2446 37.7389 15.476 37.7389 19.9771C37.7389 24.4782 35.9861 28.7099 32.8032 31.8925Z" fill="#C4C4C4"/>
<path d="M28.0123 21.6894C27.1305 20.8076 25.6956 20.8076 24.8137 21.6894L23.8493 22.6539C21.4544 21.3489 19.5165 19.411 18.2113 17.0161L19.1757 16.0517C20.0578 15.1699 20.0578 13.735 19.1757 12.8531L16.5767 10.2541C15.6949 9.37232 14.26 9.37232 13.3781 10.2541L11.2991 12.3332C10.1081 13.5242 10.0487 15.5716 11.1317 18.0985C12.072 20.2925 13.7928 22.7039 15.9772 24.8883C18.1615 27.0726 20.5729 28.7934 22.7669 29.7337C23.9675 30.2482 25.0595 30.5049 26.0032 30.5049C27.0457 30.5049 27.907 30.1915 28.5322 29.5664L30.6113 27.487V27.4873C31.0386 27.0599 31.2739 26.4921 31.2739 25.888C31.2739 25.2836 31.0386 24.7158 30.6113 24.2887L28.0123 21.6894ZM26.8928 27.927C26.5529 28.2669 25.5077 28.386 23.6804 27.6031C21.7509 26.7762 19.5973 25.2297 17.6165 23.2489C15.6358 21.2681 14.0896 19.1148 13.2626 17.1853C12.4794 15.3581 12.5986 14.3125 12.9384 13.9726L14.9777 11.9333L17.4965 14.4524L16.2893 15.6599C15.7434 16.2058 15.6116 17.0336 15.9618 17.72C17.549 20.8323 20.0331 23.3164 23.1454 24.9037C23.8321 25.2538 24.6599 25.1223 25.2058 24.5761L26.413 23.3689L28.9321 25.888L26.8928 27.927Z" fill="#C4C4C4"/>
</svg>
